<svg xmlns="http://www.w3.org/2000/svg" width="108" height="42"><g fill="#FFF" fill-rule="evenodd"><path d="M33.09 24.818h45.455v1.137H33.091v-1.137zM22.1 7.441c0-.522.184-.969.552-1.34a1.81 1.81 0 0 1 1.334-.556c.522 0 .967.185 1.335.556.368.371.552.818.552 1.34 0 .522-.184.967-.552 1.335a1.818 1.818 0 0 1-1.335.551c-.522 0-.967-.183-1.334-.551a1.818 1.818 0 0 1-.552-1.335zm30.495.582c0-.747.26-1.385.782-1.913a2.552 2.552 0 0 1 1.884-.792c.72 0 1.342.264 1.864.792.521.528.782 1.166.782 1.913 0 .747-.26 1.384-.782 1.912s-1.143.792-1.864.792a2.552 2.552 0 0 1-1.884-.792 2.622 2.622 0 0 1-.782-1.912zm31.78-.582c0-.522.183-.969.551-1.34a1.81 1.81 0 0 1 1.335-.556c.522 0 .967.185 1.335.556.368.371.552.818.552 1.34 0 .522-.184.967-.552 1.335a1.818 1.818 0 0 1-1.335.551c-.522 0-.967-.183-1.335-.551a1.818 1.818 0 0 1-.551-1.335z" opacity=".3"/><path d="M35.176 41.864a.236.236 0 0 1-.182-.074.266.266 0 0 1-.068-.188v-6.409l-1.909 1.466a.258.258 0 0 1-.17.068c-.069 0-.133-.038-.194-.113l-.272-.353a.273.273 0 0 1-.057-.159.24.24 0 0 1 .114-.204l2.465-1.91a.539.539 0 0 1 .296-.079h.534a.254.254 0 0 1 .261.261v7.432a.254.254 0 0 1-.261.262h-.557zm9.58 0a.205.205 0 0 1-.165-.074.264.264 0 0 1-.063-.176c0-.053.016-.103.046-.148l1.75-2.432a2.642 2.642 0 0 1-.636.068c-.546-.007-1.023-.134-1.432-.38a2.519 2.519 0 0 1-.938-.966 2.639 2.639 0 0 1-.324-1.279c0-.454.108-.886.324-1.295.216-.41.538-.743.966-1 .428-.258.945-.387 1.551-.387s1.125.125 1.557.375c.432.25.758.578.977.983.22.406.33.84.33 1.302 0 .416-.074.784-.222 1.102a6.294 6.294 0 0 1-.585.988l-2.205 3.091a1.102 1.102 0 0 1-.153.165.316.316 0 0 1-.21.063h-.568zm1.08-3.66c.325 0 .624-.071.897-.215a1.64 1.64 0 0 0 .648-.608c.159-.262.238-.563.238-.904 0-.348-.08-.655-.238-.92a1.628 1.628 0 0 0-.648-.614 1.893 1.893 0 0 0-.898-.216c-.318 0-.612.072-.88.216a1.638 1.638 0 0 0-.642.614c-.16.265-.24.572-.24.92 0 .341.08.642.24.904.159.261.37.464.636.608.265.144.56.216.886.216zm12.488 3.773c-.606 0-1.13-.123-1.574-.369a2.53 2.53 0 0 1-1.011-.994 2.765 2.765 0 0 1-.347-1.364c0-.652.261-1.348.784-2.09l2.17-3.024a1.18 1.18 0 0 0 .063-.08.364.364 0 0 1 .13-.107.401.401 0 0 1 .183-.04h.556c.069 0 .124.025.165.074.042.05.063.108.063.176a.304.304 0 0 1-.057.148l-1.66 2.318c.198-.045.417-.068.66-.068.553 0 1.04.123 1.46.37a2.63 2.63 0 0 1 1.324 2.312c0 .484-.116.937-.347 1.358-.23.42-.566.755-1.005 1.005-.44.25-.959.375-1.557.375zm-.011-.943c.333 0 .64-.068.92-.204.28-.137.504-.34.67-.608.167-.27.25-.593.25-.972a1.76 1.76 0 0 0-.255-.96 1.674 1.674 0 0 0-.676-.614c-.28-.14-.584-.21-.91-.21-.325 0-.628.07-.909.21-.28.14-.503.345-.67.614-.167.269-.25.589-.25.96 0 .379.083.703.25.972.167.269.39.471.67.608.28.136.584.204.91.204zm10.374.83a.205.205 0 0 1-.164-.074.264.264 0 0 1-.063-.176l.023-.103 2.84-6.647h-3.75a.254.254 0 0 1-.26-.262v-.42c0-.084.022-.15.068-.199a.25.25 0 0 1 .193-.074h4.636a.25.25 0 0 1 .193.074.28.28 0 0 1 .069.199v.386c0 .137-.03.284-.091.443l-2.807 6.569a.86.86 0 0 1-.125.204.24.24 0 0 1-.193.08h-.569zM7.556 14.85c-2.289 0-4.099-.619-5.43-1.857C.794 11.755.128 9.963.128 7.617c0-1.583.306-2.94.917-4.07A6.119 6.119 0 0 1 3.68.967C4.824.377 6.173.082 7.728.082c.734 0 1.335.054 1.803.162.467.108.924.248 1.37.42.332.145.576.217.735.217a.75.75 0 0 0 .356-.087.472.472 0 0 0 .227-.259l.065-.194h.712l.13 4.08h-.82c-.202-1.122-.66-2.007-1.372-2.655C10.222 1.118 9.34.794 8.29.794c-1.64 0-2.76.695-3.357 2.084-.598 1.389-.896 2.947-.896 4.674 0 2.03.36 3.635 1.08 4.815.719 1.18 1.791 1.77 3.216 1.77.389 0 .695-.035.918-.107a5.18 5.18 0 0 0 .788-.346V10.1c0-.374-.032-.651-.097-.831-.065-.18-.166-.295-.302-.346-.137-.05-.335-.075-.594-.075H8.72v-.713h6.261v.713h-.388c-.303 0-.536.09-.702.27-.165.18-.248.507-.248.982v4.49h-.713a1.074 1.074 0 0 0-.324-.29c-.115-.065-.287-.098-.518-.098-.115 0-.374.05-.777.151-.59.144-1.17.263-1.738.357a12.61 12.61 0 0 1-2.019.14zm38.692-2.051c.13.36.245.608.346.745.1.136.244.226.431.27.188.043.49.064.907.064v.713h-6.909v-.713h1.058c.389 0 .583-.15.583-.453a1.34 1.34 0 0 0-.108-.453l-1.23-3.304h-4.427l-1.252 3.368a1.232 1.232 0 0 0-.086.41c0 .288.216.432.647.432h.82v.713h-4.49v-.713c.432 0 .76-.025.982-.075.223-.05.41-.158.562-.324.15-.166.298-.428.442-.788L39.446.34h2.224l4.577 12.458zm-5.225-3.973l-1.878-5.074h-.065l-1.878 5.074h3.821zm24.96 1.9h.886c.086.533.313 1.072.68 1.62a4.718 4.718 0 0 0 1.425 1.37c.583.368 1.22.551 1.91.551.749 0 1.397-.201 1.944-.604.547-.404.82-1.008.82-1.814 0-.605-.19-1.094-.572-1.468-.381-.375-.968-.698-1.76-.972l-1.533-.54c-1.252-.432-2.177-.986-2.774-1.662-.597-.677-.896-1.57-.896-2.677 0-.907.209-1.695.626-2.365A4.118 4.118 0 0 1 68.476.622c.741-.36 1.594-.54 2.559-.54.59 0 1.223.122 1.9.367.057.014.19.054.4.119.208.064.413.097.614.097.202 0 .342-.036.421-.108a.696.696 0 0 0 .184-.302h.712l.216 3.692h-.885c-.216-.994-.655-1.789-1.317-2.386a3.37 3.37 0 0 0-2.332-.896c-.748 0-1.374.201-1.878.604-.504.403-.756.922-.756 1.555 0 .46.14.846.421 1.155.28.31.569.529.864.659.295.129.723.295 1.285.496l1.921.691c2.174.792 3.26 2.188 3.26 4.189 0 1.065-.244 1.96-.734 2.688a4.494 4.494 0 0 1-1.9 1.619 5.84 5.84 0 0 1-2.44.529c-.69 0-1.496-.144-2.418-.432a6.008 6.008 0 0 1-.432-.119 1.95 1.95 0 0 0-.54-.097c-.316 0-.532.13-.647.389h-.713l-.259-3.865zm31.46 3.152c.46 0 .784-.028.971-.086.187-.058.31-.162.367-.313.058-.151.086-.414.086-.788V1.03h-.971c-.749 0-1.386.27-1.91.81-.526.54-.832 1.328-.919 2.365h-.906L94.18.34h13.084v3.865h-.863c-.288-2.116-1.289-3.174-3.001-3.174h-.8V12.69c0 .374.03.637.087.788.058.151.18.255.367.313.187.058.504.086.95.086v.713H97.44v-.713z"/></g></svg>