<svg xmlns="http://www.w3.org/2000/svg" width="95" height="14"><path fill="#FFF" fill-rule="evenodd" d="M6.529 13.228c-2.015 0-3.607-.545-4.779-1.634C.578 10.504-.007 8.928-.007 6.863c0-1.393.269-2.587.807-3.582a5.384 5.384 0 0 1 2.318-2.27C4.125.491 5.312.232 6.681.232c.646 0 1.174.047 1.586.143.412.095.814.218 1.207.37.29.127.506.19.646.19a.656.656 0 0 0 .313-.076.415.415 0 0 0 .2-.228L10.69.46h.627l.114 3.591h-.722c-.178-.988-.58-1.767-1.207-2.337-.627-.57-1.403-.855-2.328-.855-1.444 0-2.428.611-2.954 1.834-.526 1.222-.788 2.593-.788 4.113 0 1.786.316 3.198.95 4.237.633 1.039 1.576 1.558 2.83 1.558.343 0 .612-.032.808-.095.196-.063.427-.165.694-.304V9.048c0-.33-.029-.573-.086-.732-.057-.158-.146-.26-.266-.304a1.584 1.584 0 0 0-.523-.066h-.284v-.627h5.51v.627h-.342c-.267 0-.472.08-.618.238-.146.158-.219.446-.219.864V13h-.627a.97.97 0 0 0-.284-.256c-.102-.058-.254-.086-.457-.086-.1 0-.329.044-.684.133a20.68 20.68 0 0 1-1.529.314c-.5.082-1.092.123-1.776.123zm34.048-1.805c.115.317.216.535.305.655.088.12.215.2.38.238.164.038.43.057.797.057V13h-6.08v-.627h.931c.343 0 .514-.133.514-.399a1.18 1.18 0 0 0-.096-.399l-1.083-2.907H32.35l-1.102 2.964c-.05.14-.076.26-.076.361 0 .253.19.38.57.38h.723V13h-3.953v-.627c.38 0 .669-.022.865-.066a.93.93 0 0 0 .494-.286c.133-.145.263-.376.39-.693L34.593.46h1.956l4.029 10.963zM35.98 7.927l-1.653-4.465h-.057l-1.654 4.465h3.364zm21.965 1.672h.779c.076.469.275.944.598 1.425.323.481.741.883 1.254 1.207a3.095 3.095 0 0 0 1.681.484c.66 0 1.23-.177 1.71-.532.482-.355.722-.887.722-1.596 0-.532-.167-.963-.503-1.292-.336-.33-.852-.614-1.549-.855l-1.349-.475c-1.102-.38-1.915-.868-2.441-1.463-.526-.595-.788-1.38-.788-2.356 0-.798.183-1.491.55-2.08A3.624 3.624 0 0 1 60.14.707c.652-.317 1.403-.475 2.252-.475.519 0 1.076.108 1.672.323.05.013.167.047.351.105.184.057.364.085.541.085.178 0 .301-.032.371-.095a.612.612 0 0 0 .162-.266h.627l.19 3.249h-.78c-.19-.874-.576-1.574-1.159-2.1a2.965 2.965 0 0 0-2.051-.788c-.66 0-1.21.177-1.654.532-.443.355-.665.81-.665 1.368 0 .405.124.744.371 1.017.247.272.5.465.76.579.26.114.636.26 1.13.437l1.691.608c1.913.697 2.87 1.925 2.87 3.686 0 .937-.216 1.726-.647 2.365a3.954 3.954 0 0 1-1.672 1.425c-.684.31-1.4.466-2.146.466-.609 0-1.318-.127-2.129-.38a5.287 5.287 0 0 1-.38-.104 1.717 1.717 0 0 0-.474-.086c-.28 0-.47.114-.57.342h-.627l-.229-3.401zm27.684 2.774c.405 0 .69-.025.855-.076.164-.05.272-.142.323-.276.05-.133.075-.364.075-.693V1.068h-.855a2.26 2.26 0 0 0-1.681.712c-.462.476-.731 1.169-.808 2.081h-.797L82.76.46h11.513v3.401h-.76c-.253-1.862-1.133-2.793-2.64-2.793h-.704v10.26c0 .33.026.56.077.694.05.133.158.224.323.275.164.05.443.076.835.076V13H85.63v-.627zM19.326 6.708c0-.46.162-.852.485-1.179.324-.326.716-.49 1.175-.49.46 0 .85.164 1.175.49.323.327.485.72.485 1.179 0 .46-.162.85-.485 1.175a1.6 1.6 0 0 1-1.175.485 1.6 1.6 0 0 1-1.175-.485 1.6 1.6 0 0 1-.485-1.175zm26.835.512c0-.657.23-1.218.689-1.683a2.246 2.246 0 0 1 1.657-.697c.635 0 1.182.232 1.641.697.459.465.688 1.026.688 1.683s-.229 1.218-.688 1.683c-.459.465-1.006.697-1.64.697a2.246 2.246 0 0 1-1.658-.697 2.308 2.308 0 0 1-.688-1.683zm27.967-.512c0-.46.162-.852.485-1.179.324-.326.716-.49 1.175-.49.46 0 .85.164 1.174.49.324.327.486.72.486 1.179 0 .46-.162.85-.486 1.175a1.6 1.6 0 0 1-1.174.485 1.6 1.6 0 0 1-1.175-.485 1.6 1.6 0 0 1-.485-1.175z"/></svg>